<svg viewBox="0 0 24 24">
  <path fill="#F0F0F0" d="M12 24a12 12 0 1 0 0-24 12 12 0 0 0 0 24Z" />
  <path fill="#0052B4"
    d="M2.5 4.7a12 12 0 0 0-2 4.2h6.2L2.5 4.7ZM23.6 8.9a12 12 0 0 0-2-4.2l-4.3 4.2h6.3ZM.4 15.1a12 12 0 0 0 2 4.2l4.3-4.2H.4ZM19.3 2.5a12 12 0 0 0-4.2-2v6.2l4.2-4.2ZM4.7 21.5a12 12 0 0 0 4.2 2v-6.2l-4.2 4.2ZM8.9.4a12 12 0 0 0-4.2 2l4.2 4.3V.4ZM15.1 23.6a12 12 0 0 0 4.2-2l-4.2-4.3v6.3ZM17.3 15.1l4.2 4.2a12 12 0 0 0 2-4.2h-6.2Z" />
  <path fill="#D80027"
    d="M23.9 10.4H13.6V.1a12.1 12.1 0 0 0-3.2 0v10.3H.1a12.1 12.1 0 0 0 0 3.2h10.3v10.3a12.1 12.1 0 0 0 3.2 0V13.6h10.3a12.1 12.1 0 0 0 0-3.2Z" />
  <path fill="#D80027"
    d="m15.1 15.1 5.4 5.4.7-.8-4.6-4.6h-1.5ZM8.9 15.1l-5.4 5.4.8.7 4.6-4.6v-1.5ZM8.9 8.9 3.5 3.5l-.7.8 4.6 4.6h1.5ZM15.1 8.9l5.4-5.4a12 12 0 0 0-.8-.7l-4.6 4.6v1.5Z" />
</svg>
