<svg viewBox="0 0 84 25" fill="#101010">
  <path
    d="M.11.4h4.4v24.5H.11V.4Zm13.93 3.65h-7.3V.35h18.8v3.7h-7.2v20.8h-4.4V4.05h.1Zm30.33 21.23c-2.7 0-5-.5-7-1.5a11 11 0 0 1-4.7-4.3c-1-1.9-1.6-4-1.6-6.5s.5-4.7 1.6-6.7c1.2-2 2.7-3.5 4.6-4.5 2-1 4.1-1.6 6.5-1.6 2.4 0 4.5.5 6.5 1.6 1.8 1.1 3.4 2.5 4.5 4.5a12.9 12.9 0 0 1 .6 11.4 9.7 9.7 0 0 1-2.9 3.6h4.4v4h-12.5Zm-.6-4c2.5 0 4.6-.8 6-2.2a8 8 0 0 0 2.3-6.1c0-1.8-.4-3.3-1-4.6a7.6 7.6 0 0 0-3-3c-1.3-.7-2.7-1-4.3-1-1.5 0-3 .3-4.2 1a7.6 7.6 0 0 0-3 3 9.2 9.2 0 0 0-1.1 4.6c0 2.6.7 4.7 2.2 6.1a8.5 8.5 0 0 0 6.1 2.2ZM58.78.47h4.2l8 18 8-18h4.3v24.5h-4.1V9.07l-7.1 15.9h-2l-7.3-15.9v15.9h-4.1V.47h.1Z" />
</svg>
